<?xml version="1.0" encoding="UTF-8" standalone="no"?>
<!DOCTYPE svg PUBLIC "-//W3C//DTD SVG 1.1//EN" "http://www.w3.org/Graphics/SVG/1.1/DTD/svg11.dtd">
<svg width="100%" height="100%" viewBox="0 0 360 85" version="1.1" xmlns="http://www.w3.org/2000/svg" xmlns:xlink="http://www.w3.org/1999/xlink" xml:space="preserve" xmlns:serif="http://www.serif.com/" style="fill-rule:evenodd;clip-rule:evenodd;stroke-linejoin:round;stroke-miterlimit:1.41421;">
    <g transform="matrix(1,0,0,1,-4.54604,0)">
        <g transform="matrix(0.483883,0,0,0.483883,46,0)">
            <path d="M207.871,0C226.334,0 241.324,14.99 241.324,33.453L241.324,173.813L201.324,133.813L33.453,133.813C14.99,133.813 0,118.823 0,100.36L0,0L207.871,0Z" style="fill:rgb(233,30,99);fill-rule:nonzero;"/>
        </g>
        <g transform="matrix(0.483883,0,0,0.483883,46,0)">
            <path d="M305.934,68.236L297.389,68.236C297.129,64.818 295.835,62.01 293.508,59.813C291.18,57.616 288.307,56.517 284.889,56.517C280.3,56.517 276.743,58.169 274.221,61.473C271.698,64.777 270.436,69.554 270.436,75.804L270.436,77.513C270.436,83.6 271.69,88.288 274.196,91.576C276.703,94.863 280.283,96.507 284.938,96.507C288.161,96.507 290.977,95.531 293.386,93.578C295.794,91.624 297.129,89.183 297.389,86.253L305.934,86.253C305.772,89.281 304.73,92.162 302.809,94.896C300.889,97.63 298.325,99.811 295.119,101.439C291.969,103.053 288.478,103.89 284.938,103.88C277.744,103.88 272.023,101.48 267.775,96.678C263.527,91.877 261.403,85.309 261.403,76.976L261.403,75.462C261.403,70.319 262.347,65.746 264.235,61.742C266.123,57.738 268.833,54.629 272.365,52.415C275.897,50.202 280.072,49.095 284.889,49.095C290.814,49.095 295.737,50.869 299.66,54.417C303.582,57.966 305.674,62.572 305.934,68.236ZM423.796,102.904L415.202,102.904L415.007,97.679C411.491,101.813 406.332,103.88 399.528,103.88C393.897,103.88 389.608,102.245 386.662,98.973C383.716,95.702 382.227,90.859 382.194,84.447L382.194,50.072L391.227,50.072L391.227,84.203C391.227,92.21 394.483,96.214 400.993,96.214C407.894,96.214 412.484,93.643 414.762,88.499L414.762,50.072L423.796,50.072L423.796,102.904ZM327.966,75.999C327.966,70.824 328.983,66.169 331.017,62.035C333.052,57.9 335.884,54.71 339.513,52.464C343.143,50.218 347.285,49.095 351.94,49.095C359.134,49.095 364.953,51.585 369.396,56.566C373.84,61.546 376.061,68.171 376.061,76.439L376.061,77.074C376.061,82.217 375.077,86.831 373.107,90.916C371.138,95.002 368.322,98.184 364.66,100.462C360.998,102.741 356.79,103.88 352.038,103.88C344.876,103.88 339.074,101.39 334.631,96.41C330.187,91.429 327.966,84.837 327.966,76.634L327.966,75.999ZM474.899,102.904L466.598,102.904L466.159,97.24C462.546,101.667 457.516,103.88 451.071,103.88C444.951,103.88 439.963,101.374 436.105,96.361C432.248,91.348 430.319,84.805 430.319,76.732L430.319,76.048C430.319,67.943 432.24,61.424 436.081,56.493C439.922,51.561 444.951,49.095 451.169,49.095C457.354,49.095 462.253,51.211 465.866,55.443L465.866,27.904L474.899,27.904L474.899,102.904ZM320.905,102.904L311.872,102.904L311.872,27.904L320.905,27.904L320.905,102.904ZM556.139,102.904L547.106,102.904L547.106,50.072L555.895,50.072L556.042,56.175C559.004,51.455 563.203,49.095 568.639,49.095C570.397,49.095 571.732,49.323 572.643,49.779L572.643,58.177C571.174,57.941 569.688,57.827 568.2,57.835C562.276,57.835 558.255,60.358 556.139,65.404L556.139,102.904ZM524.47,102.904L517.585,102.904L498.444,50.072L507.673,50.072L521.1,90.648L534.186,50.072L543.415,50.072L524.47,102.904ZM337.048,77.074C337.048,82.933 338.407,87.637 341.125,91.185C343.843,94.733 347.481,96.507 352.038,96.507C356.628,96.507 360.274,94.709 362.975,91.112C365.677,87.515 367.028,82.477 367.028,75.999C367.028,70.205 365.653,65.51 362.902,61.913C360.151,58.316 356.498,56.517 351.94,56.517C347.481,56.517 343.884,58.291 341.149,61.839C338.415,65.387 337.048,70.466 337.048,77.074ZM439.352,77.074C439.352,83.063 440.589,87.751 443.063,91.136C445.537,94.522 448.955,96.214 453.317,96.214C459.046,96.214 463.229,93.643 465.866,88.499L465.866,64.232C463.164,59.251 459.014,56.761 453.415,56.761C448.988,56.761 445.537,58.47 443.063,61.888C440.589,65.306 439.352,70.368 439.352,77.074Z" style="fill-rule:nonzero;"/>
        </g>
        <g transform="matrix(0.483883,0,0,0.483883,46,0)">
            <path d="M164.489,44.991L164.489,19.85L202.756,19.85L202.756,19.859L202.798,19.858C212.935,19.858 221.165,27.712 221.165,37.386L221.164,37.578L221.164,113.831L164.489,113.831L164.489,109.763C158.795,112.914 152.194,114.717 145.158,114.717C133.195,114.717 122.489,109.506 115.362,101.317L111.108,113.816L45.183,113.788C44.869,113.798 44.553,113.803 44.236,113.803C30.784,113.803 19.862,104.768 19.862,93.639L19.863,93.42L19.863,71.329L12.166,71.329L12.166,40.994L19.863,40.994L19.863,28.025L48.296,28.025C51.569,23.2 57.259,20.005 63.725,20.005C73.862,20.005 82.092,27.858 82.092,37.532C82.092,38.39 82.027,39.234 81.902,40.059L143.812,40.059C144.259,40.044 144.707,40.037 145.158,40.037C152.194,40.037 158.795,41.84 164.489,44.991Z" style="fill:white;fill-rule:nonzero;"/>
        </g>
        <g transform="matrix(0.483883,0,0,0.483883,46,0)">
            <path d="M43.986,37.999L43.986,50.988L53.019,50.988L53.019,61.339L43.986,61.339L43.986,87.706C43.986,89.66 44.36,91.059 45.109,91.906C45.857,92.752 47.29,93.175 49.405,93.175C50.968,93.175 52.351,93.061 53.556,92.833L53.556,103.527C50.787,104.373 47.907,104.801 45.011,104.796C35.115,104.796 30.07,99.8 29.874,89.806L29.874,61.339L22.159,61.339L22.159,50.988L29.874,50.988L29.874,37.999L43.986,37.999ZM120.001,76.915C120.001,71.675 121.01,67.003 123.029,62.902C125.047,58.8 127.952,55.626 131.744,53.38C135.537,51.134 139.939,50.011 144.952,50.011C152.081,50.011 157.9,52.192 162.408,56.554C166.917,60.916 169.432,66.841 169.952,74.328L170.05,77.941C170.05,86.046 167.788,92.549 163.263,97.448C158.738,102.347 152.667,104.796 145.05,104.796C137.433,104.796 131.354,102.355 126.813,97.472C122.272,92.589 120.001,85.949 120.001,77.55L120.001,76.915ZM188.634,103.82L174.474,103.82L174.474,28.82L188.634,28.82L188.634,103.82ZM70.773,103.82L56.613,103.82L56.613,50.988L70.773,50.988L70.773,103.82ZM210.148,103.82L195.988,103.82L195.988,50.988L210.148,50.988L210.148,103.82ZM103.907,103.82L90.431,103.82L72.609,50.988L87.355,50.988L97.169,86.583L106.984,50.988L121.73,50.988L103.907,103.82ZM134.113,77.917C134.113,82.938 135.057,86.777 136.945,89.434C138.833,92.091 141.534,93.419 145.05,93.419C148.468,93.419 151.137,92.107 153.058,89.483C154.978,86.858 155.939,82.661 155.939,76.89C155.939,71.967 154.978,68.153 153.058,65.447C151.137,62.741 148.435,61.388 144.952,61.388C141.502,61.388 138.833,62.733 136.945,65.423C135.057,68.112 134.113,72.277 134.113,77.917ZM55.782,37.316C55.782,35.2 56.49,33.458 57.906,32.091C59.322,30.724 61.251,30.04 63.693,30.04C66.101,30.04 68.022,30.724 69.454,32.091C70.887,33.458 71.603,35.2 71.603,37.316C71.603,39.464 70.878,41.222 69.43,42.589C67.981,43.956 66.069,44.64 63.693,44.64C61.316,44.64 59.404,43.956 57.955,42.589C56.507,41.222 55.782,39.464 55.782,37.316ZM195.157,37.316C195.157,35.2 195.865,33.458 197.281,32.091C198.697,30.724 200.626,30.04 203.068,30.04C205.476,30.04 207.397,30.724 208.829,32.091C210.262,33.458 210.978,35.2 210.978,37.316C210.978,39.464 210.253,41.222 208.805,42.589C207.356,43.956 205.444,44.64 203.068,44.64C200.691,44.64 198.779,43.956 197.33,42.589C195.882,41.222 195.157,39.464 195.157,37.316Z" style="fill-rule:nonzero;"/>
        </g>
    </g>
</svg>
